<svg xmlns="http://www.w3.org/2000/svg" width="1280" height="640" viewBox="0 0 1280 640">
  <defs>
    <filter id="shadow" x="-20%" y="-20%" width="140%" height="140%">
      <feDropShadow dx="0" dy="8" stdDeviation="10" flood-color="#0f172a" flood-opacity="0.10"/>
    </filter>
    <filter id="soft" x="-30%" y="-30%" width="160%" height="160%">
      <feGaussianBlur stdDeviation="12"/>
    </filter>
  </defs>

<rect width="1280" height="640" fill="#F8FAFC"/>
<rect x="78" y="78" width="1124" height="484" rx="34" fill="#FFFFFF" stroke="#E5E7EB" stroke-width="2"/>
<circle cx="1078" cy="495" r="88" fill="#F5F0FF" opacity="0.92"/>
<path d="M872 90 C970 68 1050 67 1157 70" fill="none" stroke="#F5F0FF" stroke-width="18" stroke-linecap="round"/>
<path d="M830 128 C930 106 1028 101 1150 104" fill="none" stroke="#7C3AED" stroke-width="10" stroke-linecap="round" opacity="0.13"/>
<rect x="130" y="137" width="360" height="360" rx="38" fill="#F5F0FF"/>
<rect x="158" y="165" width="304" height="304" rx="24" fill="#FFFFFF" stroke="#E5E7EB" stroke-width="2" filter="url(#shadow)"/>
<line x1="236.40" y1="196" x2="236.40" y2="426" stroke="#E8EEF6" stroke-width="1"/>
<line x1="282.80" y1="196" x2="282.80" y2="426" stroke="#E8EEF6" stroke-width="1"/>
<line x1="329.20" y1="196" x2="329.20" y2="426" stroke="#E8EEF6" stroke-width="1"/>
<line x1="375.60" y1="196" x2="375.60" y2="426" stroke="#E8EEF6" stroke-width="1"/>
<line x1="190" y1="242.00" x2="422" y2="242.00" stroke="#E8EEF6" stroke-width="1"/>
<line x1="190" y1="288.00" x2="422" y2="288.00" stroke="#E8EEF6" stroke-width="1"/>
<line x1="190" y1="334.00" x2="422" y2="334.00" stroke="#E8EEF6" stroke-width="1"/>
<line x1="190" y1="380.00" x2="422" y2="380.00" stroke="#E8EEF6" stroke-width="1"/>
<line x1="190" y1="426" x2="422" y2="426" stroke="#334155" stroke-width="3" stroke-linecap="round"/>
<line x1="190" y1="196" x2="190" y2="426" stroke="#334155" stroke-width="3" stroke-linecap="round"/>
<line x1="190" y1="409.9" x2="422" y2="409.9" stroke="#CBD5E1" stroke-width="1.8" stroke-dasharray="6 6"/>
<line x1="190" y1="212.1" x2="422" y2="212.1" stroke="#CBD5E1" stroke-width="1.8" stroke-dasharray="6 6"/>
<path d="M190.00,409.52 L192.34,409.47 L194.69,409.41 L197.03,409.35 L199.37,409.28 L201.72,409.20 L204.06,409.11 L206.40,409.00 L208.75,408.89 L211.09,408.76 L213.43,408.61 L215.78,408.45 L218.12,408.26 L220.46,408.05 L222.81,407.82 L225.15,407.55 L227.49,407.25 L229.84,406.92 L232.18,406.54 L234.53,406.12 L236.87,405.64 L239.21,405.10 L241.56,404.50 L243.90,403.83 L246.24,403.07 L248.59,402.22 L250.93,401.28 L253.27,400.22 L255.62,399.04 L257.96,397.73 L260.30,396.27 L262.65,394.65 L264.99,392.85 L267.33,390.87 L269.68,388.68 L272.02,386.27 L274.36,383.63 L276.71,380.74 L279.05,377.60 L281.39,374.19 L283.74,370.50 L286.08,366.54 L288.42,362.30 L290.77,357.78 L293.11,353.00 L295.45,347.96 L297.80,342.69 L300.14,337.21 L302.48,331.56 L304.83,325.75 L307.17,319.85 L309.52,313.88 L311.86,307.88 L314.20,301.91 L316.55,296.01 L318.89,290.22 L321.23,284.57 L323.58,279.09 L325.92,273.83 L328.26,268.81 L330.61,264.03 L332.95,259.53 L335.29,255.29 L337.64,251.34 L339.98,247.67 L342.32,244.27 L344.67,241.14 L347.01,238.26 L349.35,235.63 L351.70,233.23 L354.04,231.05 L356.38,229.07 L358.73,227.28 L361.07,225.67 L363.41,224.21 L365.76,222.91 L368.10,221.73 L370.44,220.68 L372.79,219.74 L375.13,218.90 L377.47,218.15 L379.82,217.47 L382.16,216.88 L384.51,216.34 L386.85,215.87 L389.19,215.44 L391.54,215.07 L393.88,214.73 L396.22,214.44 L398.57,214.17 L400.91,213.94 L403.25,213.73 L405.60,213.55 L407.94,213.38 L410.28,213.24 L412.63,213.11 L414.97,212.99 L417.31,212.89 L419.66,212.80 L422.00,212.72" fill="none" stroke="#7C3AED" stroke-width="6" stroke-linecap="round"/>
<circle cx="201.6" cy="410.4" r="6.2" fill="#FFFFFF" stroke="#F8766D" stroke-width="3"/>
<circle cx="213.2" cy="405.3" r="6.2" fill="#FFFFFF" stroke="#F8766D" stroke-width="3"/>
<circle cx="224.8" cy="412.2" r="6.2" fill="#FFFFFF" stroke="#F8766D" stroke-width="3"/>
<circle cx="238.7" cy="407.1" r="6.2" fill="#FFFFFF" stroke="#F8766D" stroke-width="3"/>
<circle cx="252.6" cy="413.4" r="6.2" fill="#FFFFFF" stroke="#F8766D" stroke-width="3"/>
<circle cx="266.6" cy="409.0" r="6.2" fill="#FFFFFF" stroke="#F8766D" stroke-width="3"/>
<circle cx="280.5" cy="415.0" r="6.2" fill="#FFFFFF" stroke="#F8766D" stroke-width="3"/>
<circle cx="299.0" cy="407.1" r="6.2" fill="#FFFFFF" stroke="#F8766D" stroke-width="3"/>
<circle cx="317.6" cy="412.7" r="6.2" fill="#FFFFFF" stroke="#F8766D" stroke-width="3"/>
<circle cx="333.8" cy="409.0" r="6.2" fill="#FFFFFF" stroke="#F8766D" stroke-width="3"/>
<circle cx="266.6" cy="215.8" r="6.2" fill="#FFFFFF" stroke="#00BFC4" stroke-width="3"/>
<circle cx="282.8" cy="209.1" r="6.2" fill="#FFFFFF" stroke="#00BFC4" stroke-width="3"/>
<circle cx="299.0" cy="213.9" r="6.2" fill="#FFFFFF" stroke="#00BFC4" stroke-width="3"/>
<circle cx="313.0" cy="207.3" r="6.2" fill="#FFFFFF" stroke="#00BFC4" stroke-width="3"/>
<circle cx="326.9" cy="217.8" r="6.2" fill="#FFFFFF" stroke="#00BFC4" stroke-width="3"/>
<circle cx="340.8" cy="210.7" r="6.2" fill="#FFFFFF" stroke="#00BFC4" stroke-width="3"/>
<circle cx="357.0" cy="214.9" r="6.2" fill="#FFFFFF" stroke="#00BFC4" stroke-width="3"/>
<circle cx="373.3" cy="207.7" r="6.2" fill="#FFFFFF" stroke="#00BFC4" stroke-width="3"/>
<circle cx="389.5" cy="212.6" r="6.2" fill="#FFFFFF" stroke="#00BFC4" stroke-width="3"/>
<circle cx="405.8" cy="208.0" r="6.2" fill="#FFFFFF" stroke="#00BFC4" stroke-width="3"/>
<text x="555" y="260" font-family="Inter, Helvetica Neue, Arial, sans-serif" font-size="60" font-weight="800" fill="#111827">Logistic Regression</text>
<text x="555" y="332" font-family="Inter, Helvetica Neue, Arial, sans-serif" font-size="60" font-weight="800" fill="#111827">with <tspan fill="#276DC3">R</tspan></text>
<text x="555" y="388" font-family="Inter, Helvetica Neue, Arial, sans-serif" font-size="30" font-weight="500" fill="#475569">A short course</text>
</svg>
